<svg width="20" height="20" viewBox="0 0 20 20" fill="none" xmlns="http://www.w3.org/2000/svg">
<path d="M17.5 1.66667H5.00002C4.55799 1.66667 4.13407 1.84226 3.82151 2.15482C3.50895 2.46738 3.33335 2.89131 3.33335 3.33333V5.83333H1.66669V7.5H3.33335V9.16667H1.66669V10.8333H3.33335V12.5H1.66669V14.1667H3.33335V16.6667C3.33335 17.1087 3.50895 17.5326 3.82151 17.8452C4.13407 18.1577 4.55799 18.3333 5.00002 18.3333H17.5C17.721 18.3333 17.933 18.2455 18.0893 18.0893C18.2456 17.933 18.3334 17.721 18.3334 17.5V2.5C18.3334 2.27899 18.2456 2.06703 18.0893 1.91075C17.933 1.75447 17.721 1.66667 17.5 1.66667ZM10.8334 4.16583C12.2067 4.16583 13.3334 5.29167 13.3334 6.66583C13.3309 7.32821 13.0668 7.96278 12.5985 8.43123C12.1302 8.89968 11.4957 9.16403 10.8334 9.16667C9.46085 9.16667 8.33335 8.03917 8.33335 6.66583C8.33335 5.29167 9.46085 4.16583 10.8334 4.16583ZM15.8334 15H5.83335V14.375C5.83335 12.5258 8.08752 10.625 10.8334 10.625C13.5792 10.625 15.8334 12.5258 15.8334 14.375V15Z" fill="#8A8A8A"/>
</svg>
