<svg width="20" height="20" viewBox="0 0 20 20" fill="none" xmlns="http://www.w3.org/2000/svg">
<path d="M2.49999 11.6667H4.16665V17.5C4.16665 17.721 4.25445 17.933 4.41073 18.0893C4.56701 18.2455 4.77897 18.3333 4.99999 18.3333H15C15.221 18.3333 15.433 18.2455 15.5892 18.0893C15.7455 17.933 15.8333 17.721 15.8333 17.5V11.6667H17.5C17.661 11.6668 17.8187 11.6202 17.9537 11.5325C18.0888 11.4447 18.1955 11.3197 18.2608 11.1725C18.3266 11.0254 18.3483 10.8623 18.3231 10.7031C18.298 10.5439 18.2271 10.3955 18.1192 10.2758L10.6192 1.9425C10.3033 1.59083 9.69665 1.59083 9.38082 1.9425L1.88082 10.2758C1.77306 10.3956 1.70231 10.5439 1.67712 10.703C1.65193 10.8621 1.67339 11.0251 1.7389 11.1722C1.80441 11.3194 1.91116 11.4444 2.04623 11.5322C2.1813 11.6199 2.33891 11.6666 2.49999 11.6667ZM7.45749 11.4033C7.48332 11.4825 8.13498 13.3333 9.99998 13.3333C11.8908 13.3333 12.535 11.4275 12.5417 11.4075L14.125 11.925C14.0842 12.0508 13.0858 15 9.99998 15C6.91415 15 5.91582 12.0508 5.87499 11.9258L7.45749 11.4033Z" fill="#3FA2F6"/>
</svg>
