<svg width="67" height="103" viewBox="0 0 67 103" fill="none" xmlns="http://www.w3.org/2000/svg">
<path fill-rule="evenodd" clip-rule="evenodd" d="M66.9436 23.3013C66.9807 23.4386 66.9996 23.5802 67 23.7224V45.8311C67 46.1149 66.9252 46.3936 66.783 46.6392C66.6408 46.8847 66.4364 47.0883 66.1904 47.2295L47.6441 57.9131V79.0888C47.6441 79.6651 47.3379 80.1971 46.8385 80.4872L8.12458 102.785C8.03597 102.836 7.9393 102.868 7.84263 102.902C7.80638 102.914 7.77214 102.936 7.73388 102.947C7.46325 103.018 7.17879 103.018 6.90816 102.947C6.86386 102.934 6.82358 102.91 6.78129 102.894C6.69268 102.862 6.60004 102.834 6.51545 102.785L-32.1904 80.4872C-32.4363 80.3459 -32.6406 80.1422 -32.7827 79.8967C-32.9249 79.6512 -32.9998 79.3725 -33 79.0888V12.7628C-33 12.6177 -32.9799 12.4767 -32.9436 12.3397C-32.9315 12.2933 -32.9033 12.251 -32.8872 12.2046C-32.857 12.12 -32.8288 12.0334 -32.7845 11.9548C-32.7543 11.9024 -32.71 11.8601 -32.6737 11.8117C-32.6274 11.7472 -32.5851 11.6807 -32.5308 11.6243C-32.4844 11.578 -32.424 11.5437 -32.3717 11.5034C-32.3132 11.4551 -32.2609 11.4027 -32.1944 11.3644L-12.8385 0.215346C-12.5934 0.0742566 -12.3156 0 -12.0329 0C-11.7502 0 -11.4724 0.0742566 -11.2273 0.215346L8.1266 11.3644H8.13063C8.19507 11.4047 8.24945 11.4551 8.30785 11.5014C8.36021 11.5417 8.41862 11.578 8.46494 11.6223C8.52133 11.6807 8.5616 11.7472 8.60994 11.8117C8.64418 11.8601 8.6905 11.9024 8.7187 11.9548C8.76502 12.0354 8.7912 12.12 8.82342 12.2046C8.83953 12.251 8.86773 12.2933 8.87981 12.3417C8.91689 12.479 8.93585 12.6206 8.9362 12.7628V54.1894L25.0638 44.8982V23.7204C25.0638 23.5794 25.0839 23.4363 25.1202 23.3013C25.1343 23.2529 25.1605 23.2106 25.1766 23.1643C25.2088 23.0796 25.237 22.993 25.2813 22.9144C25.3115 22.862 25.3558 22.8197 25.3901 22.7714C25.4384 22.7069 25.4787 22.6404 25.5351 22.584C25.5814 22.5376 25.6398 22.5034 25.6922 22.4631C25.7526 22.4147 25.8049 22.3623 25.8694 22.324L45.2273 11.175C45.4723 11.0337 45.7501 10.9593 46.0329 10.9593C46.3157 10.9593 46.5935 11.0337 46.8385 11.175L66.1924 22.324C66.2609 22.3643 66.3132 22.4147 66.3737 22.461C66.424 22.5013 66.4824 22.5376 66.5287 22.5819C66.5851 22.6404 66.6254 22.7069 66.6737 22.7714C66.71 22.8197 66.7543 22.862 66.7825 22.9144C66.8288 22.993 66.855 23.0796 66.8872 23.1643C66.9053 23.2106 66.9315 23.2529 66.9436 23.3013ZM63.7737 44.8982V26.5132L57.0008 30.4143L47.6441 35.8044V54.1894L63.7757 44.8982H63.7737ZM44.4198 78.1559V59.7588L35.2161 65.018L8.93419 80.0258V98.5961L44.4198 78.1559ZM-29.7737 15.5536V78.1559L5.70786 98.5941V80.0278L-12.8284 69.5316L-12.8345 69.5276L-12.8425 69.5236C-12.9049 69.4873 -12.9573 69.4349 -13.0157 69.3906C-13.0661 69.3503 -13.1245 69.318 -13.1688 69.2737L-13.1728 69.2677C-13.2252 69.2173 -13.2614 69.1548 -13.3057 69.0984C-13.346 69.044 -13.3943 68.9977 -13.4266 68.9412L-13.4286 68.9352C-13.4648 68.8747 -13.487 68.8022 -13.5132 68.7337C-13.5393 68.6732 -13.5736 68.6168 -13.5897 68.5523C-13.6098 68.4758 -13.6138 68.3932 -13.6219 68.3146C-13.63 68.2541 -13.6461 68.1937 -13.6461 68.1332V68.1292V24.8448L-23.0008 19.4526L-29.7737 15.5536ZM-12.0309 3.47563L-28.1565 12.7628L-12.0349 22.05L4.08866 12.7608L-12.0349 3.47563H-12.0309ZM-3.64486 61.4353L5.70988 56.0472V15.5536L-1.063 19.4546L-10.4197 24.8448V65.3384L-3.64486 61.4353ZM46.0329 14.4353L29.9093 23.7224L46.0329 33.0096L62.1545 23.7204L46.0329 14.4353ZM44.4198 35.8044L35.063 30.4143L28.2901 26.5132V44.8982L37.6449 50.2863L44.4198 54.1894V35.8044ZM7.31901 77.235L30.9687 63.7264L42.7905 56.9761L26.679 47.695L8.12861 58.3806L-8.77839 68.1191L7.31901 77.235Z" fill="#353B42"/>
</svg>
