<svg width="20" height="20" viewBox="0 0 20 20" fill="none" xmlns="http://www.w3.org/2000/svg">
<path d="M7.24417 12.8C6.91917 13.125 6.91917 13.6533 7.24417 13.9792L8.92667 15.6617C9.2525 15.9875 9.2525 16.5142 8.92667 16.84C8.76417 17.0025 8.55083 17.0842 8.3375 17.0842C8.12417 17.0842 7.91083 17.0025 7.74833 16.84L6.06583 15.1575C5.09083 14.1833 5.09083 12.5967 6.06583 11.6217L7.78417 9.90333C8.11 9.5775 8.63667 9.5775 8.9625 9.90333C9.28833 10.2283 9.28833 10.7558 8.9625 11.0817L7.24417 12.8ZM12.8825 9.9025C12.5567 9.57667 12.03 9.57667 11.7042 9.9025C11.3783 10.2275 11.3783 10.755 11.7042 11.0808L13.4225 12.7992C13.7475 13.1242 13.7475 13.6525 13.4225 13.9783L11.74 15.6608C11.4142 15.9867 11.4142 16.5133 11.74 16.8392C11.9025 17.0017 12.1158 17.0833 12.3292 17.0833C12.5425 17.0833 12.7558 17.0017 12.9183 16.8392L14.6008 15.1567C15.5758 14.1825 15.5758 12.5958 14.6008 11.6208L12.8825 9.9025ZM18.6667 8.7375V15.8333C18.6667 18.1308 16.7975 20 14.5 20H6.16667C3.86917 20 2 18.1308 2 15.8333V4.16667C2 1.86917 3.86917 0 6.16667 0H9.92917C11.4875 0 12.9517 0.606667 14.0542 1.70833L16.9583 4.6125C18.06 5.71417 18.6667 7.17917 18.6667 8.7375ZM12.875 2.88667C12.61 2.62167 12.3158 2.3975 12 2.21583V5.83333C12 6.2925 12.3742 6.66667 12.8333 6.66667H16.4508C16.2692 6.35083 16.045 6.05583 15.78 5.79167L12.8758 2.8875L12.875 2.88667ZM17 8.7375C17 8.60167 16.9933 8.46667 16.9808 8.33333H12.8333C11.455 8.33333 10.3333 7.21167 10.3333 5.83333V1.68583C10.2 1.67333 10.065 1.66667 9.92917 1.66667H6.16667C4.78833 1.66667 3.66667 2.78833 3.66667 4.16667V15.8333C3.66667 17.2117 4.78833 18.3333 6.16667 18.3333H14.5C15.8783 18.3333 17 17.2117 17 15.8333V8.7375Z" fill="#8A8A8A"/>
</svg>
