<svg width="69" height="70" viewBox="0 0 69 70" fill="none" xmlns="http://www.w3.org/2000/svg">
<path d="M34.1146 47.6438C52.4033 47.6438 67.2293 41.983 67.2293 35C67.2293 28.017 52.4033 22.3562 34.1146 22.3562C15.8259 22.3562 1 28.017 1 35C1 41.983 15.8259 47.6438 34.1146 47.6438Z" stroke="#353B42" stroke-width="2"/>
<path d="M23.1648 41.3219C32.3092 57.1604 44.6245 67.1696 50.672 63.6781C56.7194 60.1866 54.2088 44.5166 45.0645 28.6781C35.9201 12.8396 23.6047 2.8304 17.5573 6.32189C11.5099 9.81337 14.0205 25.4834 23.1648 41.3219Z" stroke="#353B42" stroke-width="2"/>
<path d="M23.1648 28.6781C14.0204 44.5166 11.5099 60.1866 17.5573 63.6781C23.6047 67.1696 35.9201 57.1604 45.0644 41.3219C54.2088 25.4834 56.7194 9.81336 50.6719 6.32188C44.6245 2.8304 32.3091 12.8396 23.1648 28.6781Z" stroke="#353B42" stroke-width="2"/>
</svg>
